{"title":"Detective Conan (Case Closed) (Season 3 Ep 55-82) 480p [Cursator","uid":7896891,"size":1313229279,"categoryP":"video","categoryS":"tv_shows","magnet":"?xt=urn:btih:d255e41b917f2341edded48ba0ee10642b08c9a4&amp;dn=Detective+Conan+%28Case+Closed%29+%28Season+3+Ep+55-82%29+480p+%5BCursator&amp;tr=udp%3A%2F%2Ftracker.openbittorrent.com%3A80&amp;tr=udp%3A%2F%2Fopen.demonii.com%3A1337&amp;tr=udp%3A%2F%2Ftracker.coppersurfer.tk%3A6969&amp;tr=udp%3A%2F%2Fexodus.desync.com%3A6969","seeders":0,"leechers":5,"uploader":"Cursator","files":34,"time":1354864389,"description":"ll The Episodes of Detective Conan (Season 3) aka &quot;Case Closed&quot; (Ep 55-82) at 480p Video Quality :)\n\nPlease seed after you download.\n\n--------------------------------------------------------------------------------\n\nCover\n--------------------------------------------------------------------------------\n           &lt;a href=&quot;\nhttp://img7.imageshack.us/img7/4091/detectiveconancursator.jpg&quot; rel=&quot;nofollow&quot; target=&quot;_NEW&quot;&gt;\nhttp://img7.imageshack.us/img7/4091/detectiveconancursator.jpg&lt;/a&gt;\n--------------------------------------------------------------------------------\n\nInfo\n---------------------------------------------------------------------------------\n\nTorrent Statistics\n-------------------\n  &lt;a href=&quot;\nhttp://torrent-stats.info/d48b/1b0360ce7.png&quot; rel=&quot;nofollow&quot; target=&quot;_NEW&quot;&gt;\nhttp://torrent-stats.info/d48b/1b0360ce7.png&lt;/a&gt;\n\n---------------------------------------------------------------------------------\n\nGeneral\n--------\n\nFormat                                   : MPEG-4\nFormat profile                           : Base Media\nCodec ID                                 : isom\nFile size                                : 39.4 MiB\nDuration                                 : 24mn 39s\nOverall bit rate mode                    : Variable\nOverall bit rate                         : 223 Kbps\nWriting application                      : Lavf52.61.0\n\n\nVideo\n---------------------------------------\n\nID                                       : 1\nFormat                                   : AVC\nFormat/Info                              : Advanced Video Codec\nFormat profile                           : &lt;a class=&quot;__cf_email__&quot; href=&quot;/cdn-cgi/l/email-protection&quot; data-cfemail=&quot;d69ebfb1be969ae5f8e6&quot;&gt;[email&amp;#160;protected]&lt;/a&gt;&lt;script cf-hash='f9e31' type=&quot;text/javascript&quot;&gt;\n/* &lt;![CDATA[ */!function(){try{var t=&quot;currentScript&quot;in document?document.currentScript:function(){for(var t=document.getElementsByTagName(&quot;script&quot;),e=t.length;e--;)if(t[e].getAttribute(&quot;cf-hash&quot;))return t[e]}();if(t&amp;&amp;t.previousSibling){var e,r,n,i,c=t.previousSibling,a=c.getAttribute(&quot;data-cfemail&quot;);if(a){for(e=&quot;&quot;,r=parseInt(a.substr(0,2),16),n=2;a.length-n;n+=2)i=parseInt(a.substr(n,2),16)^r,e+=String.fromCharCode(i);e=document.createTextNode(e),c.parentNode.replaceChild(e,c)}}}catch(u){}}();/* ]]&gt; */&lt;/script&gt;\nFormat settings, CABAC                   : Yes\nFormat settings, ReFrames                : 5 frames\nCodec ID                                 : avc1\nCodec ID/Info                            : Advanced Video Coding\nDuration                                 : 24mn 39s\nBit rate                                 : 124 Kbps\nWidth                                    : 640 pixels\nHeight                                   : 480 pixels\nDisplay aspect ratio                     : 4:3\nFrame rate mode                          : Constant\nFrame rate                               : 23.976 fps\nColor space                              : YUV\nChroma subsampling                       : 4:2:0\nBit depth                                : 8 bits\nScan type                                : Progressive\nBits/(Pixel*Frame)                       : 0.017\nStream size                              : 21.8 MiB (55%)\nWriting library                          : x264 core 93 r1542 5b86182\n\nAudio\n----------------------------------\n\nID                                       : 2\nFormat                                   : AAC\nFormat/Info                              : Advanced Audio Codec\nFormat profile                           : LC\nCodec ID                                 : 40\nDuration                                 : 24mn 39s\nBit rate mode                            : Variable\nBit rate                                 : 96.0 Kbps\nChannel(s)                               : 2 channels\nChannel positions                        : Front: L R\nSampling rate                            : 48.0 KHz\nCompression mode                         : Lossy\nDelay relative to video                  : 83ms\nStream size                              : 16.9 MiB (43%)\n\n\n----------------------------------------------------------------------------------\n\nScreenshots\n----------------------------------------------------------------------------------\n                 &lt;a href=&quot;\nhttp://img40.imageshack.us/img40/925/detectiveconan1.png&quot; rel=&quot;nofollow&quot; target=&quot;_NEW&quot;&gt;\nhttp://img40.imageshack.us/img40/925/detectiveconan1.png&lt;/a&gt;\n                 &lt;a href=&quot;\nhttp://img812.imageshack.us/img812/1508/detectiveconan2.png&quot; rel=&quot;nofollow&quot; target=&quot;_NEW&quot;&gt;\nhttp://img812.imageshack.us/img812/1508/detectiveconan2.png&lt;/a&gt;\n                 &lt;a href=&quot;\nhttp://img607.imageshack.us/img607/4382/detectiveconan3.png&quot; rel=&quot;nofollow&quot; target=&quot;_NEW&quot;&gt;\nhttp://img607.imageshack.us/img607/4382/detectiveconan3.png&lt;/a&gt;\n                 &lt;a href=&quot;\nhttp://img837.imageshack.us/img837/9124/detectiveconan4.png&quot; rel=&quot;nofollow&quot; target=&quot;_NEW&quot;&gt;\nhttp://img837.imageshack.us/img837/9124/detectiveconan4.png&lt;/a&gt;\n                 &lt;a href=&quot;\nhttp://img29.imageshack.us/img29/9058/detectiveconan5.png&quot; rel=&quot;nofollow&quot; target=&quot;_NEW&quot;&gt;\nhttp://img29.imageshack.us/img29/9058/detectiveconan5.png&lt;/a&gt;\n \n\n----------------------------------------------------------------------------------\n\nStory\n----------------------------------------------------------------------------------\n\nKudo Shinichi is a seventeen year-old high school detective whom people call the &quot;Modern Sherlock Holmes.&quot; However, one night after a date with his childhood sweetheart, Ran, Shinichi witnessed an illegal trade and, caught off his guard, was knocked unconscious and fed a drug that was supposed to kill him... but he woke up and found himself shrunken to a seven year old. In order to track down the men who did this to him, Shinichi hid his identity and lived with Ran, whose father happened to be a hopeless detective, and with that came a series of murders and mysteries that he must solve.\n\n----------------------------------------------------------------------------------\n\nThank you for downloading. \n\nEnjoy Watching :)\t\t\t\t\n\t\t\t\t\t\t\t\t","torrent":{"xt":"urn:btih:d255e41b917f2341edded48ba0ee10642b08c9a4","amp;dn":"Detective+Conan+%28Case+Closed%29+%28Season+3+Ep+55-82%29+480p+%5BCursator","amp;tr":["udp%3A%2F%2Ftracker.openbittorrent.com%3A80","udp%3A%2F%2Fopen.demonii.com%3A1337","udp%3A%2F%2Ftracker.coppersurfer.tk%3A6969","udp%3A%2F%2Fexodus.desync.com%3A6969"],"infoHash":"d255e41b917f2341edded48ba0ee10642b08c9a4","infoHashBuffer":{"type":"Buffer","data":[210,85,228,27,145,127,35,65,237,222,212,139,160,238,16,100,43,8,201,164]},"announce":[],"urlList":[]}}